<svg width="32" height="30" viewBox="0 0 32 30" fill="none" xmlns="http://www.w3.org/2000/svg">
<path d="M31.5122 3.20422C22.1855 -0.11135 12.048 -0.3852 2.55597 2.42202C2.17867 2.5123 1.82343 2.67769 1.51147 2.90831C1.1995 3.13893 0.937209 3.43004 0.740243 3.76427C0.543277 4.09851 0.41568 4.469 0.36507 4.85363C0.31446 5.23827 0.341875 5.62916 0.445678 6.00297C0.965194 8.08787 1.72298 10.4833 2.63311 12.6551C2.64874 12.7059 2.67315 12.6815 2.67315 12.6307C2.54132 11.6122 3.3245 10.3261 4.86059 9.85832C12.2427 7.50895 20.1872 7.61413 27.5045 10.1581C27.7744 10.2504 28.06 10.2878 28.3446 10.2679C28.6291 10.2481 28.9068 10.1715 29.1613 10.0426C29.4158 9.91372 29.6419 9.7352 29.8262 9.51755C30.0106 9.29991 30.1496 9.04754 30.2349 8.77535C31.145 5.84575 31.5122 3.85654 31.603 3.35851C31.6186 3.26574 31.5366 3.22961 31.5122 3.20422ZM9.00988 9.64935C7.89175 9.88274 6.3459 10.2499 5.18577 10.6347C2.86651 11.4345 2.97392 14.2566 4.20924 15.157C4.30006 14.6336 4.86059 13.9217 5.48557 13.6815C7.80093 12.7713 10.2872 12.2274 12.8008 12.0028C11.5235 11.4843 10.2774 10.7411 9.02648 9.64837L9.00988 9.64935ZM27.4732 15.2996C24.1412 13.734 20.5291 12.8523 16.8505 12.7065C13.1718 12.5608 9.50133 13.1539 6.05587 14.451C4.95141 14.8679 4.26002 16.2117 4.95141 17.487C6.15922 19.6707 7.52993 21.7602 9.05187 23.7378C8.83313 22.98 9.21984 21.5767 10.7042 21.1178C14.8095 19.8561 19.117 20.3912 21.9802 21.5504C22.7888 21.8756 23.9333 21.6783 24.5749 20.7174C25.669 19.0319 26.6641 17.2842 27.5552 15.4832C27.5953 15.4021 27.5552 15.3416 27.4732 15.2996ZM20.8211 25.4165C19.6201 24.81 18.5218 24.0189 17.5663 23.0718C17.1239 22.6294 16.4726 21.9937 15.7861 21.2359C14.2187 21.2359 12.6973 21.3931 11.0704 21.9127C9.55967 22.3853 9.41807 24.1304 10.0792 25.0405C11.1973 26.434 11.9815 27.1859 13.2324 28.4789C13.8954 29.1291 14.7856 29.4954 15.7142 29.5C16.6428 29.5045 17.5366 29.147 18.2059 28.5033C19.1824 27.5268 19.783 26.8754 20.8865 25.6245C20.9519 25.5581 20.9275 25.4419 20.8211 25.4165Z" fill="black"/>
</svg>
